<svg width="616" height="96" xmlns="http://www.w3.org/2000/svg">

 <g>
  <title>background</title>
  <rect fill="none" id="canvas_background" height="402" width="582" y="-1" x="-1"/>
 </g>
 <g>
  <title>Layer 1</title>
  <g stroke="null" id="svg_1">
   <path stroke="null" id="svg_2" fill="#ffffff" d="m611.929993,75l-9.209999,9l-9.209999,-9l-9.209999,9l-9.209999,-9l-9.209999,9l-9.209999,-9l-9.209999,9l-9.209999,-9l-9.209999,9l-9.209999,-9l-9.209999,9l-9.209999,-9l-9.209999,9l-9.209999,-9l-9.209999,9l-9.209999,-9l-9.209999,9l-9.209999,-9l-9.209999,9l-9.209999,-9l-9.209999,9l-9.209999,-9l-9.209999,9l-9.209999,-9l-9.209999,9l-9.209999,-9l-9.209999,9l-9.209999,-9l-9.209999,9l-9.209999,-9l-9.209999,9l-9.209999,-9l-9.209999,9l-9.209999,-9l-9.209999,9l-9.209999,-9l-9.209999,9l-9.209999,-9l-9.209999,9l-9.209999,-9l-9.209999,9l-9.209999,-9l-9.209999,9l-9.209999,-9l-9.209999,9l-9.209999,-9l-9.209999,9l-9.209999,-9l-9.209999,9l-9.209999,-9l-9.209999,9l-9.209999,-9l-9.209999,9l-9.209999,-9l-9.209999,9l-9.209999,-9l-9.209999,9l-9.209999,-9l-9.209999,9l-9.209999,-9l-9.209999,9l-9.209999,-9l-9.209999,9l-9.209999,-9l-9.209999,9l-9.209999,-9l-3.07,3l0,-74l613.999959,0l0,74l-3.07,-3z"/>
  </g>
 </g>
</svg>